# xmcd
# Copyright (C) 1995-1998 Ti Kan
#
# Track frame offsets:
#       150
#       15463
#       30185
#       44421
#       59880
#       74090
#       91154
#       105809
#       119283
#       133234
#       149958
#       166268
#       180797
#       196271
#       211395
#       228063
#
# Disc length: 3231 seconds
#
# Revision: 0
# Processed by: cddbd v1.5.2PL0 Copyright (c) Steve Scherf et al.
# Submitted via: CD-Transfer v1.0
#
DISCID=da0c9d10
DTITLE=George Mcanthony - Bridge To Eldorado
DYEAR=08
DGENRE=
TTITLE0=I`m Not Afraid
TTITLE1=Bridge To Eldorado
TTITLE2=Twentx Years On The Road
TTITLE3=Follow The Star
TTITLE4=Italian Line Dance Crowd
TTITLE5=Mother Nature
TTITLE6=Waiting For You
TTITLE7=Give A Man Work
TTITLE8=Sailor Boy
TTITLE9=The Promise
TTITLE10=My Dear Juliet
TTITLE11=Old Friends
TTITLE12=Be Oneself
TTITLE13=One More Ride
TTITLE14=Across The Waves Of Time
TTITLE15=They Call Me Trinity
EXTD=
EXTT0=
EXTT1=
EXTT2=
EXTT3=
EXTT4=
EXTT5=
EXTT6=
EXTT7=
EXTT8=
EXTT9=
EXTT10=
EXTT11=
EXTT12=
EXTT13=
EXTT14=
EXTT15=
PLAYORDER=
